<mxfile host="app.diagrams.net" modified="2024-01-07T16:55:05.067Z" agent="Mozilla/5.0 (Windows NT 10.0; Win64; x64) AppleWebKit/537.36 (KHTML, like Gecko) Chrome/120.0.0.0 Safari/537.36 Edg/120.0.0.0" etag="oZ4LrryHf59a8-Rf4ZPg" version="22.1.17" type="github">
  <diagram name="Page-1" id="2YBvvXClWsGukQMizWep">
    <mxGraphModel dx="2507" dy="1365" grid="1" gridSize="10" guides="1" tooltips="1" connect="1" arrows="1" fold="1" page="1" pageScale="1" pageWidth="850" pageHeight="1100" math="0" shadow="0">
      <root>
        <mxCell id="0" />
        <mxCell id="1" parent="0" />
        <mxCell id="t2SMl-fJpXFEqkQkuvSD-34" value="" style="group" vertex="1" connectable="0" parent="1">
          <mxGeometry x="400" y="310" width="921" height="480" as="geometry" />
        </mxCell>
        <mxCell id="t2SMl-fJpXFEqkQkuvSD-5" value="" style="endArrow=none;dashed=1;html=1;dashPattern=1 3;strokeWidth=2;rounded=0;" edge="1" parent="t2SMl-fJpXFEqkQkuvSD-34" target="t2SMl-fJpXFEqkQkuvSD-1">
          <mxGeometry width="50" height="50" relative="1" as="geometry">
            <mxPoint x="15.48083333333335" y="390" as="sourcePoint" />
            <mxPoint x="15.48083333333335" y="108.33333333333333" as="targetPoint" />
          </mxGeometry>
        </mxCell>
        <mxCell id="aM9ryv3xv72pqoxQDRHE-9" value="1. Turn On" style="html=1;verticalAlign=bottom;endArrow=block;edgeStyle=elbowEdgeStyle;elbow=vertical;curved=0;rounded=0;" parent="t2SMl-fJpXFEqkQkuvSD-34" edge="1">
          <mxGeometry relative="1" as="geometry">
            <mxPoint x="21.666666666666657" y="108.33333333333333" as="sourcePoint" />
            <Array as="points">
              <mxPoint x="54.16666666666666" y="108.33333333333333" />
            </Array>
            <mxPoint x="162.5" y="108.33333333333333" as="targetPoint" />
          </mxGeometry>
        </mxCell>
        <mxCell id="t2SMl-fJpXFEqkQkuvSD-1" value="User" style="shape=umlActor;verticalLabelPosition=bottom;verticalAlign=top;html=1;outlineConnect=0;" vertex="1" parent="t2SMl-fJpXFEqkQkuvSD-34">
          <mxGeometry width="32.5" height="65" as="geometry" />
        </mxCell>
        <mxCell id="t2SMl-fJpXFEqkQkuvSD-3" value="Extension" style="shape=umlLifeline;perimeter=lifelinePerimeter;whiteSpace=wrap;html=1;container=0;dropTarget=0;collapsible=0;recursiveResize=0;outlineConnect=0;portConstraint=eastwest;newEdgeStyle={&quot;edgeStyle&quot;:&quot;elbowEdgeStyle&quot;,&quot;elbow&quot;:&quot;vertical&quot;,&quot;curved&quot;:0,&quot;rounded&quot;:0};" vertex="1" parent="t2SMl-fJpXFEqkQkuvSD-34">
          <mxGeometry x="108.33000000000001" y="43.33" width="108.33" height="436.67" as="geometry" />
        </mxCell>
        <mxCell id="t2SMl-fJpXFEqkQkuvSD-4" value="" style="html=1;points=[];perimeter=orthogonalPerimeter;outlineConnect=0;targetShapes=umlLifeline;portConstraint=eastwest;newEdgeStyle={&quot;edgeStyle&quot;:&quot;elbowEdgeStyle&quot;,&quot;elbow&quot;:&quot;vertical&quot;,&quot;curved&quot;:0,&quot;rounded&quot;:0};container=0;" vertex="1" parent="t2SMl-fJpXFEqkQkuvSD-34">
          <mxGeometry x="10.829999999999998" y="97.5" width="13.43" height="382.5" as="geometry" />
        </mxCell>
        <mxCell id="t2SMl-fJpXFEqkQkuvSD-6" value="Web Page" style="shape=umlLifeline;perimeter=lifelinePerimeter;whiteSpace=wrap;html=1;container=0;dropTarget=0;collapsible=0;recursiveResize=0;outlineConnect=0;portConstraint=eastwest;newEdgeStyle={&quot;edgeStyle&quot;:&quot;elbowEdgeStyle&quot;,&quot;elbow&quot;:&quot;vertical&quot;,&quot;curved&quot;:0,&quot;rounded&quot;:0};" vertex="1" parent="t2SMl-fJpXFEqkQkuvSD-34">
          <mxGeometry x="249.17000000000002" y="43.33" width="108.33" height="436.67" as="geometry" />
        </mxCell>
        <mxCell id="t2SMl-fJpXFEqkQkuvSD-8" value="text-based Machine Learning model" style="shape=umlLifeline;perimeter=lifelinePerimeter;whiteSpace=wrap;html=1;container=0;dropTarget=0;collapsible=0;recursiveResize=0;outlineConnect=0;portConstraint=eastwest;newEdgeStyle={&quot;edgeStyle&quot;:&quot;elbowEdgeStyle&quot;,&quot;elbow&quot;:&quot;vertical&quot;,&quot;curved&quot;:0,&quot;rounded&quot;:0};size=50;" vertex="1" parent="t2SMl-fJpXFEqkQkuvSD-34">
          <mxGeometry x="531" y="32.5" width="108.33" height="447.5" as="geometry" />
        </mxCell>
        <mxCell id="t2SMl-fJpXFEqkQkuvSD-9" value="image-feedback Machine Learning Model" style="shape=umlLifeline;perimeter=lifelinePerimeter;whiteSpace=wrap;html=1;container=0;dropTarget=0;collapsible=0;recursiveResize=0;outlineConnect=0;portConstraint=eastwest;newEdgeStyle={&quot;edgeStyle&quot;:&quot;elbowEdgeStyle&quot;,&quot;elbow&quot;:&quot;vertical&quot;,&quot;curved&quot;:0,&quot;rounded&quot;:0};size=50;" vertex="1" parent="t2SMl-fJpXFEqkQkuvSD-34">
          <mxGeometry x="671.83" y="32.5" width="108.33" height="447.5" as="geometry" />
        </mxCell>
        <mxCell id="t2SMl-fJpXFEqkQkuvSD-10" value="User Feedback Module" style="shape=umlLifeline;perimeter=lifelinePerimeter;whiteSpace=wrap;html=1;container=0;dropTarget=0;collapsible=0;recursiveResize=0;outlineConnect=0;portConstraint=eastwest;newEdgeStyle={&quot;edgeStyle&quot;:&quot;elbowEdgeStyle&quot;,&quot;elbow&quot;:&quot;vertical&quot;,&quot;curved&quot;:0,&quot;rounded&quot;:0};size=50;" vertex="1" parent="t2SMl-fJpXFEqkQkuvSD-34">
          <mxGeometry x="812.67" y="32.5" width="108.33" height="447.5" as="geometry" />
        </mxCell>
        <mxCell id="t2SMl-fJpXFEqkQkuvSD-13" value="6. marks images as spoilers" style="html=1;verticalAlign=bottom;endArrow=block;edgeStyle=elbowEdgeStyle;elbow=vertical;curved=0;rounded=0;exitX=0.846;exitY=0.658;exitDx=0;exitDy=0;exitPerimeter=0;" edge="1" parent="t2SMl-fJpXFEqkQkuvSD-34">
          <mxGeometry relative="1" as="geometry">
            <mxPoint x="20.82833333333322" y="330.00499999999994" as="sourcePoint" />
            <Array as="points">
              <mxPoint x="477.4966666666661" y="332.54" />
            </Array>
            <mxPoint x="725.5" y="332.53999999999996" as="targetPoint" />
          </mxGeometry>
        </mxCell>
        <mxCell id="t2SMl-fJpXFEqkQkuvSD-14" value="7. Upvote / Downvote the detection" style="html=1;verticalAlign=bottom;endArrow=block;edgeStyle=elbowEdgeStyle;elbow=vertical;curved=0;rounded=0;" edge="1" parent="t2SMl-fJpXFEqkQkuvSD-34">
          <mxGeometry relative="1" as="geometry">
            <mxPoint x="21.666666666666515" y="410" as="sourcePoint" />
            <Array as="points">
              <mxPoint x="617.4999999999994" y="410" />
            </Array>
            <mxPoint x="866.3333333333335" y="410" as="targetPoint" />
          </mxGeometry>
        </mxCell>
        <mxCell id="t2SMl-fJpXFEqkQkuvSD-18" value="2. Scrape the contents" style="html=1;verticalAlign=bottom;endArrow=block;edgeStyle=elbowEdgeStyle;elbow=vertical;curved=0;rounded=0;" edge="1" parent="t2SMl-fJpXFEqkQkuvSD-34">
          <mxGeometry relative="1" as="geometry">
            <mxPoint x="162.5" y="151.66666666666666" as="sourcePoint" />
            <Array as="points">
              <mxPoint x="195" y="151.66666666666666" />
            </Array>
            <mxPoint x="303.3333333333333" y="151.66666666666666" as="targetPoint" />
          </mxGeometry>
        </mxCell>
        <mxCell id="t2SMl-fJpXFEqkQkuvSD-19" value="3. stores the scraped data" style="html=1;verticalAlign=bottom;endArrow=block;edgeStyle=elbowEdgeStyle;elbow=vertical;curved=0;rounded=0;" edge="1" parent="t2SMl-fJpXFEqkQkuvSD-34">
          <mxGeometry relative="1" as="geometry">
            <mxPoint x="303.3333333333333" y="173.33333333333331" as="sourcePoint" />
            <Array as="points">
              <mxPoint x="335.8333333333333" y="173.33333333333331" />
            </Array>
            <mxPoint x="444.16666666666663" y="173.33333333333331" as="targetPoint" />
          </mxGeometry>
        </mxCell>
        <mxCell id="t2SMl-fJpXFEqkQkuvSD-22" value="5. Blurs the spoiler content" style="html=1;verticalAlign=bottom;endArrow=block;edgeStyle=elbowEdgeStyle;elbow=vertical;curved=0;rounded=0;" edge="1" parent="t2SMl-fJpXFEqkQkuvSD-34">
          <mxGeometry relative="1" as="geometry">
            <mxPoint x="163" y="297" as="sourcePoint" />
            <Array as="points">
              <mxPoint x="195" y="296.99666666666667" />
            </Array>
            <mxPoint x="303.3333333333333" y="296.99666666666667" as="targetPoint" />
          </mxGeometry>
        </mxCell>
        <mxCell id="t2SMl-fJpXFEqkQkuvSD-24" value="Datasets" style="shape=umlLifeline;perimeter=lifelinePerimeter;whiteSpace=wrap;html=1;container=0;dropTarget=0;collapsible=0;recursiveResize=0;outlineConnect=0;portConstraint=eastwest;newEdgeStyle={&quot;edgeStyle&quot;:&quot;elbowEdgeStyle&quot;,&quot;elbow&quot;:&quot;vertical&quot;,&quot;curved&quot;:0,&quot;rounded&quot;:0};size=50;" vertex="1" parent="t2SMl-fJpXFEqkQkuvSD-34">
          <mxGeometry x="390" y="32.5" width="108.33" height="447.5" as="geometry" />
        </mxCell>
        <mxCell id="t2SMl-fJpXFEqkQkuvSD-25" value="4. run ML detection" style="html=1;verticalAlign=bottom;endArrow=block;edgeStyle=elbowEdgeStyle;elbow=vertical;curved=0;rounded=0;" edge="1" parent="t2SMl-fJpXFEqkQkuvSD-34">
          <mxGeometry relative="1" as="geometry">
            <mxPoint x="444.00333333333333" y="211.0533333333333" as="sourcePoint" />
            <Array as="points">
              <mxPoint x="476.50333333333333" y="211.0533333333333" />
            </Array>
            <mxPoint x="584.8366666666666" y="211.0533333333333" as="targetPoint" />
          </mxGeometry>
        </mxCell>
        <mxCell id="t2SMl-fJpXFEqkQkuvSD-26" value="" style="group" vertex="1" connectable="0" parent="t2SMl-fJpXFEqkQkuvSD-34">
          <mxGeometry x="212.67000000000002" y="230" width="373.33" height="43.33" as="geometry" />
        </mxCell>
        <mxCell id="t2SMl-fJpXFEqkQkuvSD-17" value="" style="endArrow=none;dashed=1;html=1;dashPattern=1 3;strokeWidth=2;rounded=0;startArrow=classic;startFill=1;" edge="1" parent="t2SMl-fJpXFEqkQkuvSD-26" source="t2SMl-fJpXFEqkQkuvSD-3">
          <mxGeometry width="50" height="50" relative="1" as="geometry">
            <mxPoint x="142.2209523809524" y="21.664999999999985" as="sourcePoint" />
            <mxPoint x="373.33" y="21.664999999999985" as="targetPoint" />
          </mxGeometry>
        </mxCell>
        <mxCell id="t2SMl-fJpXFEqkQkuvSD-20" value="&lt;span style=&quot;color: rgb(0, 0, 0); font-family: Helvetica; font-size: 11px; font-style: normal; font-variant-ligatures: normal; font-variant-caps: normal; font-weight: 400; letter-spacing: normal; orphans: 2; text-align: center; text-indent: 0px; text-transform: none; widows: 2; word-spacing: 0px; -webkit-text-stroke-width: 0px; background-color: rgb(255, 255, 255); text-decoration-thickness: initial; text-decoration-style: initial; text-decoration-color: initial; float: none; display: inline !important;&quot;&gt;4.1 return list of content to be blocked&lt;/span&gt;" style="text;whiteSpace=wrap;html=1;" vertex="1" parent="t2SMl-fJpXFEqkQkuvSD-26">
          <mxGeometry x="101.66" width="170" height="43.33" as="geometry" />
        </mxCell>
        <mxCell id="t2SMl-fJpXFEqkQkuvSD-27" value="&lt;span style=&quot;color: rgb(0, 0, 0); font-family: Helvetica; font-size: 11px; font-style: normal; font-variant-ligatures: normal; font-variant-caps: normal; font-weight: 400; letter-spacing: normal; orphans: 2; text-align: center; text-indent: 0px; text-transform: none; widows: 2; word-spacing: 0px; -webkit-text-stroke-width: 0px; background-color: rgb(255, 255, 255); text-decoration-thickness: initial; text-decoration-style: initial; text-decoration-color: initial; float: none; display: inline !important;&quot;&gt;6.1 updates the dataset&lt;/span&gt;" style="text;whiteSpace=wrap;html=1;" vertex="1" parent="t2SMl-fJpXFEqkQkuvSD-34">
          <mxGeometry x="529.33" y="343.33" width="120.67" height="43.33" as="geometry" />
        </mxCell>
        <mxCell id="t2SMl-fJpXFEqkQkuvSD-28" value="" style="endArrow=none;dashed=1;html=1;dashPattern=1 3;strokeWidth=2;rounded=0;startArrow=classic;startFill=1;" edge="1" parent="t2SMl-fJpXFEqkQkuvSD-34">
          <mxGeometry width="50" height="50" relative="1" as="geometry">
            <mxPoint x="443.8316666666667" y="364.995" as="sourcePoint" />
            <mxPoint x="723.69" y="364.995" as="targetPoint" />
          </mxGeometry>
        </mxCell>
        <mxCell id="t2SMl-fJpXFEqkQkuvSD-29" value="" style="endArrow=none;dashed=1;html=1;dashPattern=1 3;strokeWidth=2;rounded=0;startArrow=classic;startFill=1;" edge="1" parent="t2SMl-fJpXFEqkQkuvSD-34">
          <mxGeometry width="50" height="50" relative="1" as="geometry">
            <mxPoint x="443.8316666666667" y="438.33500000000004" as="sourcePoint" />
            <mxPoint x="865.86" y="438.33500000000004" as="targetPoint" />
          </mxGeometry>
        </mxCell>
        <mxCell id="t2SMl-fJpXFEqkQkuvSD-32" value="&lt;span style=&quot;color: rgb(0, 0, 0); font-family: Helvetica; font-size: 11px; font-style: normal; font-variant-ligatures: normal; font-variant-caps: normal; font-weight: 400; letter-spacing: normal; orphans: 2; text-align: center; text-indent: 0px; text-transform: none; widows: 2; word-spacing: 0px; -webkit-text-stroke-width: 0px; background-color: rgb(255, 255, 255); text-decoration-thickness: initial; text-decoration-style: initial; text-decoration-color: initial; float: none; display: inline !important;&quot;&gt;7.1 updates the dataset&lt;/span&gt;" style="text;whiteSpace=wrap;html=1;" vertex="1" parent="t2SMl-fJpXFEqkQkuvSD-34">
          <mxGeometry x="600" y="410" width="130" height="43.33" as="geometry" />
        </mxCell>
      </root>
    </mxGraphModel>
  </diagram>
</mxfile>
